<svg width="800" height="400" viewBox="0 0 800 400" fill="none" xmlns="http://www.w3.org/2000/svg">
  <rect width="800" height="400" fill="#18273F"/>
  
  <!-- Dashboard Background -->
  <rect x="150" y="80" width="500" height="300" rx="10" fill="#0F1623"/>
  <rect x="150" y="80" width="500" height="40" rx="10" fill="#1E2A3B"/>
  
  <!-- Dashboard Header -->
  <circle cx="175" cy="100" r="8" fill="#FF4444"/>
  <circle cx="200" cy="100" r="8" fill="#FFAA00"/>
  <circle cx="225" cy="100" r="8" fill="#44DD44"/>
  <text x="400" y="107" text-anchor="middle" font-family="Arial" font-size="16" fill="white">Drone Analytics Dashboard</text>
  
  <!-- Main Content Area -->
  <rect x="170" y="140" width="220" height="220" rx="5" fill="#1E2A3B"/>
  <rect x="410" y="140" width="220" height="100" rx="5" fill="#1E2A3B"/>
  <rect x="410" y="260" width="220" height="100" rx="5" fill="#1E2A3B"/>
  
  <!-- Map Visualization -->
  <rect x="180" y="150" width="200" height="150" fill="#244061"/>
  
  <!-- Drone Flight Path -->
  <path d="M220 250 L240 210 L270 230 L300 180 L340 220 L360 200" stroke="#00AAFF" stroke-width="2"/>
  
  <!-- Map Points -->
  <circle cx="240" cy="210" r="4" fill="#FF3300"/>
  <circle cx="270" cy="230" r="4" fill="#FF3300"/>
  <circle cx="300" cy="180" r="4" fill="#FF3300"/>
  <circle cx="340" cy="220" r="4" fill="#FF3300"/>
  
  <!-- Map Legend -->
  <rect x="180" y="310" width="200" height="40" fill="#1E2A3B"/>
  <rect x="190" y="320" width="15" height="8" fill="#00AAFF"/>
  <text x="230" y="328" font-family="Arial" font-size="10" fill="white">Flight Path</text>
  <circle cx="280" cy="324" r="4" fill="#FF3300"/>
  <text x="320" y="328" font-family="Arial" font-size="10" fill="white">Detection Points</text>
  
  <!-- Data Visualization -->
  <rect x="420" y="150" width="200" height="80" fill="#1E2A3B"/>
  
  <!-- Bar Chart -->
  <rect x="440" y="200" width="15" height="20" fill="#4CAF50"/>
  <rect x="465" y="190" width="15" height="30" fill="#4CAF50"/>
  <rect x="490" y="170" width="15" height="50" fill="#4CAF50"/>
  <rect x="515" y="180" width="15" height="40" fill="#4CAF50"/>
  <rect x="540" y="160" width="15" height="60" fill="#4CAF50"/>
  <rect x="565" y="185" width="15" height="35" fill="#4CAF50"/>
  
  <!-- Chart Title -->
  <text x="520" y="165" text-anchor="middle" font-family="Arial" font-size="10" fill="white">Detection Analytics</text>
  
  <!-- AI Detection Results -->
  <rect x="420" y="270" width="200" height="80" fill="#1E2A3B"/>
  
  <!-- Object Detection Boxes -->
  <rect x="440" y="290" width="30" height="20" stroke="#FF5722" stroke-width="1" fill="none"/>
  <text x="455" y="305" text-anchor="middle" font-family="Arial" font-size="8" fill="#FF5722">Tree</text>
  
  <rect x="480" y="285" width="40" height="30" stroke="#2196F3" stroke-width="1" fill="none"/>
  <text x="500" y="305" text-anchor="middle" font-family="Arial" font-size="8" fill="#2196F3">Building</text>
  
  <rect x="540" y="295" width="25" height="15" stroke="#FFEB3B" stroke-width="1" fill="none"/>
  <text x="553" y="305" text-anchor="middle" font-family="Arial" font-size="8" fill="#FFEB3B">Car</text>
  
  <rect x="575" y="290" width="35" height="25" stroke="#9C27B0" stroke-width="1" fill="none"/>
  <text x="593" y="305" text-anchor="middle" font-family="Arial" font-size="8" fill="#9C27B0">Pool</text>
  
  <!-- Section Title -->
  <text x="520" y="280" text-anchor="middle" font-family="Arial" font-size="10" fill="white">Object Recognition</text>
  
  <!-- Code Elements -->
  <g opacity="0.4">
    <text x="70" y="120" font-family="monospace" font-size="10" fill="#00FF00">import drone_api</text>
    <text x="70" y="135" font-family="monospace" font-size="10" fill="#00FF00">from ai import detection</text>
    <text x="70" y="150" font-family="monospace" font-size="10" fill="#00FF00">class DroneAnalytics:</text>
    <text x="70" y="165" font-family="monospace" font-size="10" fill="#00FF00">    def process_imagery():</text>
    <text x="70" y="180" font-family="monospace" font-size="10" fill="#00FF00">        return detection.run()</text>
  </g>
  
  <!-- Data Flow Lines -->
  <path d="M670 180 C700 180, 730 150, 680 120" stroke="#00AAFF" stroke-width="1" stroke-dasharray="3 2"/>
  <path d="M670 300 C700 300, 730 330, 680 340" stroke="#00AAFF" stroke-width="1" stroke-dasharray="3 2"/>
  
  <!-- Title -->
  <text x="400" y="50" text-anchor="middle" font-family="Arial" font-size="24" font-weight="bold" fill="white">Intelligent Analysis Software</text>
</svg> 