<svg width="800" height="400" viewBox="0 0 800 400" fill="none" xmlns="http://www.w3.org/2000/svg">
  <rect width="800" height="400" fill="#18273F"/>
  <rect x="100" y="200" width="600" height="180" fill="#336633"/>
  <path d="M100 200 L700 200 L700 380 L100 380 Z" fill="#336633"/>
  <line x1="150" y1="200" x2="150" y2="380" stroke="#448844" stroke-width="5"/>
  <line x1="200" y1="200" x2="200" y2="380" stroke="#448844" stroke-width="5"/>
  <line x1="250" y1="200" x2="250" y2="380" stroke="#448844" stroke-width="5"/>
  <line x1="300" y1="200" x2="300" y2="380" stroke="#448844" stroke-width="5"/>
  <line x1="350" y1="200" x2="350" y2="380" stroke="#448844" stroke-width="5"/>
  <line x1="400" y1="200" x2="400" y2="380" stroke="#448844" stroke-width="5"/>
  <line x1="450" y1="200" x2="450" y2="380" stroke="#448844" stroke-width="5"/>
  <line x1="500" y1="200" x2="500" y2="380" stroke="#448844" stroke-width="5"/>
  <line x1="550" y1="200" x2="550" y2="380" stroke="#448844" stroke-width="5"/>
  <line x1="600" y1="200" x2="600" y2="380" stroke="#448844" stroke-width="5"/>
  <line x1="650" y1="200" x2="650" y2="380" stroke="#448844" stroke-width="5"/>
  <circle cx="400" cy="100" r="40" fill="#FFCC00"/>
  <path d="M400 80 L400 60 M380 90 L365 75 M380 110 L365 125 M400 120 L400 140 M420 110 L435 125 M420 90 L435 75" stroke="#FFCC00" stroke-width="3"/>
  <text x="400" y="360" text-anchor="middle" font-family="Arial" font-size="24" font-weight="bold" fill="white">Agriculture Field</text>
</svg> 