<svg width="800" height="400" viewBox="0 0 800 400" fill="none" xmlns="http://www.w3.org/2000/svg">
  <rect width="800" height="400" fill="#18273F"/>
  <rect x="100" y="200" width="600" height="20" fill="#777777"/>
  <path d="M100 200 C 200 150, 300 150, 400 150 C 500 150, 600 150, 700 200" stroke="#999999" stroke-width="10" fill="none"/>
  <line x1="150" y1="150" x2="150" y2="200" stroke="#777777" stroke-width="5"/>
  <line x1="250" y1="150" x2="250" y2="200" stroke="#777777" stroke-width="5"/>
  <line x1="350" y1="150" x2="350" y2="200" stroke="#777777" stroke-width="5"/>
  <line x1="450" y1="150" x2="450" y2="200" stroke="#777777" stroke-width="5"/>
  <line x1="550" y1="150" x2="550" y2="200" stroke="#777777" stroke-width="5"/>
  <line x1="650" y1="150" x2="650" y2="200" stroke="#777777" stroke-width="5"/>
  <rect x="380" y="90" width="40" height="25" fill="#FF0000" opacity="0.7"/>
  <circle cx="400" cy="90" r="15" fill="#FFCC00"/>
  <path d="M385 90 L390 85 L410 85 L415 90 L410 95 L390 95 Z" fill="#555555"/>
  <text x="400" y="360" text-anchor="middle" font-family="Arial" font-size="24" font-weight="bold" fill="white">Bridge Inspection</text>
</svg> 